  0
SECTION
  2
HEADER
  9
$ACADVER
  1
AC1009
  9
$DWGCODEPAGE
  3
ansi_1251
  9
$INSBASE
 10
0.0
 20
0.0
 30
0.0
  9
$EXTMIN
 10
45.0
 20
48.5
 30
0.0
  9
$EXTMAX
 10
57.2
 20
53.5
 30
0.0
  9
$LIMMIN
 10
0.0
 20
0.0
  9
$LIMMAX
 10
84100.0
 20
59400.0
  9
$ORTHOMODE
 70
     0
  9
$REGENMODE
 70
     1
  9
$FILLMODE
 70
     1
  9
$QTEXTMODE
 70
     0
  9
$MIRRTEXT
 70
     0
  9
$DRAGMODE
 70
     2
  9
$LTSCALE
 40
1.0
  9
$OSMODE
 70
    37
  9
$ATTMODE
 70
     1
  9
$TEXTSIZE
 40
250.0
  9
$TRACEWID
 40
1.0
  9
$TEXTSTYLE
  7
ГОСТ_2_304
  9
$CLAYER
  8
0
  9
$CELTYPE
  6
BYLAYER
  9
$CECOLOR
 62
   256
  9
$DIMSCALE
 40
100.0
  9
$DIMASZ
 40
2.5
  9
$DIMEXO
 40
0.625
  9
$DIMDLI
 40
3.75
  9
$DIMRND
 40
0.0
  9
$DIMDLE
 40
2.0
  9
$DIMEXE
 40
1.25
  9
$DIMTP
 40
0.0
  9
$DIMTM
 40
0.0
  9
$DIMTXT
 40
2.5
  9
$DIMCEN
 40
2.5
  9
$DIMTSZ
 40
0.0
  9
$DIMTOL
 70
     0
  9
$DIMLIM
 70
     0
  9
$DIMTIH
 70
     0
  9
$DIMTOH
 70
     0
  9
$DIMSE1
 70
     0
  9
$DIMSE2
 70
     0
  9
$DIMTAD
 70
     1
  9
$DIMZIN
 70
     8
  9
$DIMBLK
  1
ARCHTICK
  9
$DIMASO
 70
     1
  9
$DIMSHO
 70
     1
  9
$DIMPOST
  1

  9
$DIMAPOST
  1

  9
$DIMALT
 70
     0
  9
$DIMALTD
 70
     2
  9
$DIMALTF
 40
25.4
  9
$DIMLFAC
 40
1.0
  9
$DIMTOFL
 70
     1
  9
$DIMTVP
 40
0.0
  9
$DIMTIX
 70
     0
  9
$DIMSOXD
 70
     0
  9
$DIMSAH
 70
     0
  9
$DIMBLK1
  1
ARCHTICK
  9
$DIMBLK2
  1
ARCHTICK
  9
$DIMSTYLE
  2
СПДС
  9
$DIMCLRD
 70
     0
  9
$DIMCLRE
 70
     0
  9
$DIMCLRT
 70
     0
  9
$DIMTFAC
 40
0.75
  9
$DIMGAP
 40
0.625
  9
$LUNITS
 70
     2
  9
$LUPREC
 70
     4
  9
$SKETCHINC
 40
1.0
  9
$FILLETRAD
 40
0.0
  9
$AUNITS
 70
     0
  9
$AUPREC
 70
     0
  9
$MENU
  1
.
  9
$ELEVATION
 40
0.0
  9
$PELEVATION
 40
0.0
  9
$THICKNESS
 40
0.0
  9
$LIMCHECK
 70
     0
  9
$CHAMFERA
 40
0.0
  9
$CHAMFERB
 40
0.0
  9
$SKPOLY
 70
     0
  9
$TDCREATE
 40
2454083.075050046
  9
$TDUPDATE
 40
2456742.533643137
  9
$TDINDWG
 40
0.0105753588
  9
$TDUSRTIMER
 40
0.0105751736
  9
$USRTIMER
 70
     1
  9
$ANGBASE
 50
0.0
  9
$ANGDIR
 70
     0
  9
$PDMODE
 70
     0
  9
$PDSIZE
 40
0.0
  9
$PLINEWID
 40
0.0
  9
$COORDS
 70
     1
  9
$SPLFRAME
 70
     0
  9
$SPLINETYPE
 70
     6
  9
$SPLINESEGS
 70
     8
  9
$ATTDIA
 70
     0
  9
$ATTREQ
 70
     1
  9
$HANDLING
 70
     1
  9
$HANDSEED
  5
674
  9
$SURFTAB1
 70
     6
  9
$SURFTAB2
 70
     6
  9
$SURFTYPE
 70
     6
  9
$SURFU
 70
     6
  9
$SURFV
 70
     6
  9
$UCSNAME
  2

  9
$UCSORG
 10
0.0
 20
0.0
 30
0.0
  9
$UCSXDIR
 10
1.0
 20
0.0
 30
0.0
  9
$UCSYDIR
 10
0.0
 20
1.0
 30
0.0
  9
$PUCSNAME
  2

  9
$PUCSORG
 10
0.0
 20
0.0
 30
0.0
  9
$PUCSXDIR
 10
1.0
 20
0.0
 30
0.0
  9
$PUCSYDIR
 10
0.0
 20
1.0
 30
0.0
  9
$USERI1
 70
     0
  9
$USERI2
 70
     0
  9
$USERI3
 70
     0
  9
$USERI4
 70
     0
  9
$USERI5
 70
     0
  9
$USERR1
 40
0.0
  9
$USERR2
 40
0.0
  9
$USERR3
 40
0.0
  9
$USERR4
 40
0.0
  9
$USERR5
 40
0.0
  9
$WORLDVIEW
 70
     1
  9
$SHADEDGE
 70
     3
  9
$SHADEDIF
 70
    70
  9
$TILEMODE
 70
     1
  9
$MAXACTVP
 70
    64
  9
$PLIMCHECK
 70
     0
  9
$PEXTMIN
 10
0.0
 20
0.0
 30
0.0
  9
$PEXTMAX
 10
0.0
 20
0.0
 30
0.0
  9
$PLIMMIN
 10
0.0
 20
0.0
  9
$PLIMMAX
 10
0.0
 20
0.0
  9
$UNITMODE
 70
     0
  9
$VISRETAIN
 70
     1
  9
$PLINEGEN
 70
     0
  9
$PSLTSCALE
 70
     0
  0
ENDSEC
  0
SECTION
  2
TABLES
  0
TABLE
  2
VPORT
 70
     1
  0
VPORT
  2
*ACTIVE
 70
     0
 10
0.0
 20
0.0
 11
1.0
 21
1.0
 12
-158.9
 22
-97.5
 13
0.0
 23
0.0
 14
0.25
 24
0.25
 15
10.0
 25
10.0
 16
0.0
 26
0.0
 36
1.0
 17
210.0
 27
148.5
 37
0.0
 40
8.984568
 41
1.385042
 42
50.0
 43
0.0
 44
0.0
 50
0.0
 51
0.0
 71
    16
 72
  1000
 73
     1
 74
     3
 75
     1
 76
     0
 77
     0
 78
     0
  0
ENDTAB
  0
TABLE
  2
LTYPE
 70
     6
  0
LTYPE
  2
CONTINUOUS
 70
     0
  3
Solid line
 72
    65
 73
     0
 40
0.0
  0
LTYPE
  2
ГОСТ_2_303_3
 70
     0
  3
Сплошная волнистая ~~~~~~~~~~~~~~~~~~~
 72
    65
 73
     2
 40
26.001
 49
0.001
 49
-26.0
  0
LTYPE
  2
ГОСТ_2_303_5
 70
     0
  3
Штрих-пунктирная тонкая ____ _ ____ _ ____ _ __
 72
    65
 73
     4
 40
24.0
 49
20.0
 49
-1.5
 49
1.0
 49
-1.5
  0
LTYPE
  2
ГОСТ_2_303_4
 70
     0
  3
Штриховая __ __ __ __ __ __ __ __ __
 72
    65
 73
     3
 40
7.0
 49
5.0
 49
-2.0
 49
0.0
  0
LTYPE
  2
ГОСТ_2_303_6
 70
     0
  3
Штрих-пунктирная утолщенная ___ _ ___ _ ___ _ _
 72
    65
 73
     4
 40
12.0
 49
8.0
 49
-1.5
 49
1.0
 49
-1.5
  0
LTYPE
  2
ГОСТ_2_303_8
 70
     0
  3
Сплошная тонкая с изломами ---'\---'\---'\---'\
 72
    65
 73
     2
 40
48.0
 49
40.0
 49
-8.0
  0
ENDTAB
  0
TABLE
  2
LAYER
 70
     2
  0
LAYER
  2
0
 70
     0
 62
     7
  6
CONTINUOUS
  0
LAYER
  2
MARK
 70
     0
 62
   126
  6
CONTINUOUS
  0
ENDTAB
  0
TABLE
  2
STYLE
 70
     3
  0
STYLE
  2
STANDARD
 70
     0
 40
0.0
 41
1.0
 50
0.0
 71
     0
 42
2.5
  3
txt.shx
  4

  0
STYLE
  2

 70
     1
 40
0.0
 41
1.0
 50
0.0
 71
     0
 42
0.2
  3
GOST 2.303-68.shx
  4

  0
STYLE
  2
ГОСТ_2_304
 70
     0
 40
0.0
 41
1.0
 50
0.0
 71
     0
 42
250.0
  3
CS_Gost2304.shx
  4

  0
ENDTAB
  0
TABLE
  2
VIEW
 70
     0
  0
ENDTAB
  0
TABLE
  2
UCS
 70
     0
  0
ENDTAB
  0
TABLE
  2
APPID
 70
    14
  0
APPID
  2
ACAD
 70
     0
  0
APPID
  2
ACAD_PSEXT
 70
     0
  0
APPID
  2
ACADANNOPO
 70
     0
  0
APPID
  2
ACADANNOTATIVE
 70
     0
  0
APPID
  2
ACAD_DSTYLE_DIMJAG
 70
     0
  0
APPID
  2
ACAD_DSTYLE_DIMTALN
 70
     0
  0
APPID
  2
ACAD_MLEADERVER
 70
     0
  0
APPID
  2
MCS_DIM1
 70
     0
  0
APPID
  2
MCSXDATA5
 70
     0
  0
APPID
  2
MCS_PARAMS_DATA
 70
     0
  0
APPID
  2
MCS_PARAMS_HIDDEN_DATA
 70
     0
  0
APPID
  2
MCS_DOCUMENT_ID
 70
     0
  0
APPID
  2
MCSUBENTIDENTIFICATION
 70
     0
  0
APPID
  2
MC_VERSION_DATA
 70
     0
  0
ENDTAB
  0
TABLE
  2
DIMSTYLE
 70
     7
  0
DIMSTYLE
  2
STANDARD
 70
     0
  3

  4

  5

  6

  7

 40
100.0
 41
2.5
 42
0.5
 43
6.0
 44
0.0
 45
0.0
 46
0.0
 47
0.0
 48
0.0
140
2.5
141
2.5
142
0.0
143
25.4
144
1.0
145
0.0
146
1.0
147
1.0
 71
     0
 72
     0
 73
     0
 74
     1
 75
     0
 76
     0
 77
     0
 78
     0
170
     0
171
     2
172
     0
173
     0
174
     0
175
     0
176
     0
177
     0
178
     0
  0
DIMSTYLE
  2
СПДС
 70
     0
  3

  4

  5
ARCHTICK
  6
ARCHTICK
  7
ARCHTICK
 40
100.0
 41
2.5
 42
0.625
 43
3.75
 44
1.25
 45
0.0
 46
2.0
 47
0.0
 48
0.0
140
2.5
141
2.5
142
0.0
143
25.4
144
1.0
145
0.0
146
0.75
147
0.625
 71
     0
 72
     0
 73
     0
 74
     0
 75
     0
 76
     0
 77
     1
 78
     8
170
     0
171
     2
172
     1
173
     0
174
     0
175
     0
176
     0
177
     0
178
     0
  0
DIMSTYLE
  2
СПДС$2
 70
     0
  3

  4

  5
OPEN30
  6
OPEN30
  7
OPEN30
 40
1.0
 41
2.5
 42
0.625
 43
3.75
 44
0.18
 45
0.0
 46
0.0
 47
0.0
 48
0.0
140
2.5
141
0.09
142
0.0
143
25.4
144
1.0
145
0.0
146
1.0
147
0.625
 71
     0
 72
     0
 73
     0
 74
     1
 75
     0
 76
     0
 77
     1
 78
     0
170
     0
171
     2
172
     0
173
     0
174
     0
175
     0
176
     0
177
     0
178
     0
  0
DIMSTYLE
  2
СПДС$3
 70
     0
  3

  4

  5
OPEN30
  6
OPEN30
  7
OPEN30
 40
1.0
 41
2.5
 42
0.0625
 43
0.38
 44
0.18
 45
0.0
 46
0.0
 47
0.0
 48
0.0
140
2.5
141
2.5
142
0.0
143
25.4
144
1.0
145
0.0
146
1.0
147
0.625
 71
     0
 72
     0
 73
     0
 74
     1
 75
     0
 76
     0
 77
     1
 78
     0
170
     0
171
     2
172
     1
173
     0
174
     0
175
     0
176
     0
177
     0
178
     0
  0
DIMSTYLE
  2
СПДС$7
 70
     0
  3

  4

  5

  6

  7

 40
1.0
 41
1.0
 42
0.0625
 43
0.38
 44
0.18
 45
0.0
 46
0.0
 47
0.0
 48
0.0
140
2.5
141
0.09
142
0.0
143
25.4
144
1.0
145
0.0
146
1.0
147
0.625
 71
     0
 72
     0
 73
     0
 74
     1
 75
     0
 76
     0
 77
     1
 78
     0
170
     0
171
     2
172
     0
173
     0
174
     0
175
     0
176
     0
177
     0
178
     0
  0
DIMSTYLE
  2
СПДС$4
 70
     0
  3

  4

  5
OPEN30
  6
OPEN30
  7
OPEN30
 40
1.0
 41
2.5
 42
0.0625
 43
0.38
 44
0.18
 45
0.0
 46
0.0
 47
0.0
 48
0.0
140
2.5
141
2.5
142
0.0
143
25.4
144
1.0
145
0.0
146
1.0
147
0.625
 71
     0
 72
     0
 73
     0
 74
     1
 75
     0
 76
     0
 77
     1
 78
     0
170
     0
171
     2
172
     1
173
     0
174
     0
175
     0
176
     0
177
     0
178
     0
  0
DIMSTYLE
  2
ISO-25
 70
     0
  3

  4

  5

  6

  7

 40
1.0
 41
2.5
 42
0.625
 43
3.75
 44
1.25
 45
0.0
 46
0.0
 47
0.0
 48
0.0
140
2.5
141
2.5
142
0.0
143
0.03937
144
1.0
145
0.0
146
1.0
147
0.625
 71
     0
 72
     0
 73
     0
 74
     0
 75
     0
 76
     0
 77
     1
 78
     8
170
     0
171
     3
172
     1
173
     0
174
     0
175
     0
176
     0
177
     0
178
     0
  0
ENDTAB
  0
ENDSEC
  0
SECTION
  2
BLOCKS
  0
BLOCK
  8
0
  2
$MODEL_SPACE
 70
     0
 10
0.0
 20
0.0
 30
0.0
  3
$MODEL_SPACE
  1

  0
ENDBLK
  5
21
  8
0
  0
BLOCK
 67
     1
  8
0
  2
$PAPER_SPACE
 70
     0
 10
0.0
 20
0.0
 30
0.0
  3
$PAPER_SPACE
  1

  0
ENDBLK
  5
227
 67
     1
  8
0
  0
BLOCK
  8
0
  2
_ARCHTICK
 70
     0
 10
0.0
 20
0.0
 30
0.0
  3
_ARCHTICK
  1

  0
POLYLINE
  5
1EF
  8
0
  6
BYBLOCK
 62
     0
 66
     1
 10
0.0
 20
0.0
 30
0.0
 40
0.15
 41
0.15
  0
VERTEX
  5
1F0
  8
0
  6
BYBLOCK
 62
     0
 10
-0.5
 20
-0.5
 30
0.0
  0
VERTEX
  5
1F1
  8
0
  6
BYBLOCK
 62
     0
 10
0.5
 20
0.5
 30
0.0
  0
SEQEND
  5
1F2
  8
0
  6
BYBLOCK
 62
     0
  0
ENDBLK
  5
1EE
  8
0
  0
BLOCK
  8
0
  2
_OPEN30
 70
     0
 10
0.0
 20
0.0
 30
0.0
  3
_OPEN30
  1

  0
LINE
  5
1F7
  8
0
  6
BYBLOCK
 62
     0
 10
-1.0
 20
0.267949
 30
0.0
 11
0.0
 21
0.0
 31
0.0
  0
LINE
  5
1F8
  8
0
  6
BYBLOCK
 62
     0
 10
0.0
 20
0.0
 30
0.0
 11
-1.0
 21
-0.267949
 31
0.0
  0
LINE
  5
1F9
  8
0
  6
BYBLOCK
 62
     0
 10
0.0
 20
0.0
 30
0.0
 11
-1.0
 21
0.0
 31
0.0
  0
ENDBLK
  5
1F6
  8
0
  0
BLOCK
  8
0
  2
_DOT
 70
     0
 10
0.0
 20
0.0
 30
0.0
  3
_DOT
  1

  0
POLYLINE
  5
1FF
  8
0
  6
BYBLOCK
 62
     0
 66
     1
 10
0.0
 20
0.0
 30
0.0
 70
     1
 40
0.5
 41
0.5
  0
VERTEX
  5
201
  8
0
  6
BYBLOCK
 62
     0
 10
-0.25
 20
0.0
 30
0.0
 42
1.0
  0
VERTEX
  5
202
  8
0
  6
BYBLOCK
 62
     0
 10
0.25
 20
0.0
 30
0.0
 42
1.0
  0
SEQEND
  5
203
  8
0
  6
BYBLOCK
 62
     0
  0
LINE
  5
200
  8
0
  6
BYBLOCK
 62
     0
 10
-0.5
 20
0.0
 30
0.0
 11
-1.0
 21
0.0
 31
0.0
  0
ENDBLK
  5
1FE
  8
0
  0
ENDSEC
  0
SECTION
  2
ENTITIES
  0
POLYLINE
  5
3D6
  8
MARK
 66
     1
 10
0.0
 20
0.0
 30
0.0
 40
0.3
 41
0.3
  0
VERTEX
  5
5A8
  8
MARK
 10
46.1
 20
51.5
 30
0.0
  0
VERTEX
  5
5A9
  8
MARK
 10
46.1
 20
52.3
 30
0.0
  0
SEQEND
  5
630
  8
MARK
  0
POLYLINE
  5
3D7
  8
MARK
 66
     1
 10
0.0
 20
0.0
 30
0.0
 40
0.3
 41
0.3
  0
VERTEX
  5
5AA
  8
MARK
 10
45.3
 20
52.25
 30
0.0
  0
VERTEX
  5
5AB
  8
MARK
 10
46.1
 20
52.25
 30
0.0
  0
SEQEND
  5
631
  8
MARK
  0
POLYLINE
  5
3D8
  8
MARK
 66
     1
 10
0.0
 20
0.0
 30
0.0
 40
0.3
 41
0.3
  0
VERTEX
  5
5AC
  8
MARK
 10
45.106066
 20
52.506066
 30
0.0
  0
VERTEX
  5
5AD
  8
MARK
 10
45.406066
 20
52.206066
 30
0.0
  0
SEQEND
  5
632
  8
MARK
  0
POLYLINE
  5
3D9
  8
MARK
 66
     1
 10
0.0
 20
0.0
 30
0.0
 40
0.3
 41
0.3
  0
VERTEX
  5
5AE
  8
MARK
 10
45.3
 20
53.35
 30
0.0
  0
VERTEX
  5
5AF
  8
MARK
 10
46.1
 20
53.35
 30
0.0
  0
SEQEND
  5
633
  8
MARK
  0
POLYLINE
  5
3DA
  8
MARK
 66
     1
 10
0.0
 20
0.0
 30
0.0
 40
0.3
 41
0.3
  0
VERTEX
  5
5B0
  8
MARK
 10
45.106066
 20
53.093934
 30
0.0
  0
VERTEX
  5
5B1
  8
MARK
 10
45.406066
 20
53.393934
 30
0.0
  0
SEQEND
  5
634
  8
MARK
  0
POLYLINE
  5
3DB
  8
MARK
 66
     1
 10
0.0
 20
0.0
 30
0.0
 40
0.3
 41
0.3
  0
VERTEX
  5
5B2
  8
MARK
 10
45.15
 20
53.2
 30
0.0
  0
VERTEX
  5
5B3
  8
MARK
 10
45.15
 20
52.4
 30
0.0
  0
SEQEND
  5
635
  8
MARK
  0
POLYLINE
  5
3DC
  8
MARK
 66
     1
 10
0.0
 20
0.0
 30
0.0
 40
0.3
 41
0.3
  0
VERTEX
  5
5B4
  8
MARK
 10
46.9
 20
52.25
 30
0.0
  0
VERTEX
  5
5B5
  8
MARK
 10
46.1
 20
52.25
 30
0.0
  0
SEQEND
  5
636
  8
MARK
  0
POLYLINE
  5
3DD
  8
MARK
 66
     1
 10
0.0
 20
0.0
 30
0.0
 40
0.3
 41
0.3
  0
VERTEX
  5
5B6
  8
MARK
 10
47.093934
 20
52.506066
 30
0.0
  0
VERTEX
  5
5B7
  8
MARK
 10
46.793934
 20
52.206066
 30
0.0
  0
SEQEND
  5
637
  8
MARK
  0
POLYLINE
  5
3DE
  8
MARK
 66
     1
 10
0.0
 20
0.0
 30
0.0
 40
0.3
 41
0.3
  0
VERTEX
  5
5B8
  8
MARK
 10
46.9
 20
53.35
 30
0.0
  0
VERTEX
  5
5B9
  8
MARK
 10
46.1
 20
53.35
 30
0.0
  0
SEQEND
  5
638
  8
MARK
  0
POLYLINE
  5
3DF
  8
MARK
 66
     1
 10
0.0
 20
0.0
 30
0.0
 40
0.3
 41
0.3
  0
VERTEX
  5
5BA
  8
MARK
 10
47.093934
 20
53.093934
 30
0.0
  0
VERTEX
  5
5BB
  8
MARK
 10
46.793934
 20
53.393934
 30
0.0
  0
SEQEND
  5
639
  8
MARK
  0
POLYLINE
  5
3E0
  8
MARK
 66
     1
 10
0.0
 20
0.0
 30
0.0
 40
0.3
 41
0.3
  0
VERTEX
  5
5BC
  8
MARK
 10
47.05
 20
53.2
 30
0.0
  0
VERTEX
  5
5BD
  8
MARK
 10
47.05
 20
52.4
 30
0.0
  0
SEQEND
  5
63A
  8
MARK
  0
POLYLINE
  5
3E1
  8
MARK
 66
     1
 10
0.0
 20
0.0
 30
0.0
 40
0.3
 41
0.3
  0
VERTEX
  5
5BE
  8
MARK
 10
46.1
 20
52.4
 30
0.0
  0
VERTEX
  5
5BF
  8
MARK
 10
46.1
 20
53.2
 30
0.0
  0
SEQEND
  5
63B
  8
MARK
  0
POLYLINE
  5
407
  8
MARK
 66
     1
 10
0.0
 20
0.0
 30
0.0
 40
0.3
 41
0.3
  0
VERTEX
  5
5C0
  8
MARK
 10
48.3
 20
51.65
 30
0.0
  0
VERTEX
  5
5C1
  8
MARK
 10
49.2
 20
51.65
 30
0.0
  0
SEQEND
  5
63C
  8
MARK
  0
POLYLINE
  5
408
  8
MARK
 66
     1
 10
0.0
 20
0.0
 30
0.0
 40
0.3
 41
0.3
  0
VERTEX
  5
5C2
  8
MARK
 10
48.3
 20
53.35
 30
0.0
  0
VERTEX
  5
5C3
  8
MARK
 10
49.2
 20
53.35
 30
0.0
  0
SEQEND
  5
63D
  8
MARK
  0
POLYLINE
  5
409
  8
MARK
 66
     1
 10
0.0
 20
0.0
 30
0.0
 40
0.3
 41
0.3
  0
VERTEX
  5
5C4
  8
MARK
 10
48.3
 20
52.5
 30
0.0
  0
VERTEX
  5
5C5
  8
MARK
 10
48.9
 20
52.5
 30
0.0
  0
SEQEND
  5
63E
  8
MARK
  0
POLYLINE
  5
40A
  8
MARK
 66
     1
 10
0.0
 20
0.0
 30
0.0
 40
0.3
 41
0.3
  0
VERTEX
  5
5C6
  8
MARK
 10
48.15
 20
51.5
 30
0.0
  0
VERTEX
  5
5C7
  8
MARK
 10
48.15
 20
53.5
 30
0.0
  0
SEQEND
  5
63F
  8
MARK
  0
POLYLINE
  5
430
  8
MARK
 66
     1
 10
0.0
 20
0.0
 30
0.0
 40
0.3
 41
0.3
  0
VERTEX
  5
5C8
  8
MARK
 10
50.15
 20
51.5
 30
0.0
  0
VERTEX
  5
5C9
  8
MARK
 10
50.15
 20
53.5
 30
0.0
  0
SEQEND
  5
640
  8
MARK
  0
POLYLINE
  5
431
  8
MARK
 66
     1
 10
0.0
 20
0.0
 30
0.0
 40
0.3
 41
0.3
  0
VERTEX
  5
5CA
  8
MARK
 10
50.3
 20
53.35
 30
0.0
  0
VERTEX
  5
5CB
  8
MARK
 10
50.9
 20
53.35
 30
0.0
  0
SEQEND
  5
641
  8
MARK
  0
POLYLINE
  5
432
  8
MARK
 66
     1
 10
0.0
 20
0.0
 30
0.0
 40
0.3
 41
0.3
  0
VERTEX
  5
5CC
  8
MARK
 10
51.093934
 20
53.093934
 30
0.0
  0
VERTEX
  5
5CD
  8
MARK
 10
50.793934
 20
53.393934
 30
0.0
  0
SEQEND
  5
642
  8
MARK
  0
POLYLINE
  5
433
  8
MARK
 66
     1
 10
0.0
 20
0.0
 30
0.0
 40
0.3
 41
0.3
  0
VERTEX
  5
5CE
  8
MARK
 10
51.05
 20
52.7
 30
0.0
  0
VERTEX
  5
5CF
  8
MARK
 10
51.05
 20
53.2
 30
0.0
  0
SEQEND
  5
643
  8
MARK
  0
POLYLINE
  5
434
  8
MARK
 66
     1
 10
0.0
 20
0.0
 30
0.0
 40
0.3
 41
0.3
  0
VERTEX
  5
5D0
  8
MARK
 10
51.093934
 20
52.806066
 30
0.0
  0
VERTEX
  5
5D1
  8
MARK
 10
50.793934
 20
52.506066
 30
0.0
  0
SEQEND
  5
644
  8
MARK
  0
POLYLINE
  5
435
  8
MARK
 66
     1
 10
0.0
 20
0.0
 30
0.0
 40
0.3
 41
0.3
  0
VERTEX
  5
5D2
  8
MARK
 10
50.3
 20
52.55
 30
0.0
  0
VERTEX
  5
5D3
  8
MARK
 10
50.9
 20
52.55
 30
0.0
  0
SEQEND
  5
645
  8
MARK
  0
POLYLINE
  5
436
  8
MARK
 66
     1
 10
0.0
 20
0.0
 30
0.0
 40
0.3
 41
0.3
  0
VERTEX
  5
5D4
  8
MARK
 10
52.15
 20
51.5
 30
0.0
  0
VERTEX
  5
5D5
  8
MARK
 10
52.15
 20
53.5
 30
0.0
  0
SEQEND
  5
646
  8
MARK
  0
POLYLINE
  5
437
  8
MARK
 66
     1
 10
0.0
 20
0.0
 30
0.0
 40
0.3
 41
0.3
  0
VERTEX
  5
5D6
  8
MARK
 10
52.3
 20
53.35
 30
0.0
  0
VERTEX
  5
5D7
  8
MARK
 10
52.9
 20
53.35
 30
0.0
  0
SEQEND
  5
647
  8
MARK
  0
POLYLINE
  5
438
  8
MARK
 66
     1
 10
0.0
 20
0.0
 30
0.0
 40
0.3
 41
0.3
  0
VERTEX
  5
5D8
  8
MARK
 10
53.093934
 20
53.093934
 30
0.0
  0
VERTEX
  5
5D9
  8
MARK
 10
52.793934
 20
53.393934
 30
0.0
  0
SEQEND
  5
648
  8
MARK
  0
POLYLINE
  5
439
  8
MARK
 66
     1
 10
0.0
 20
0.0
 30
0.0
 40
0.3
 41
0.3
  0
VERTEX
  5
5DA
  8
MARK
 10
53.05
 20
52.7
 30
0.0
  0
VERTEX
  5
5DB
  8
MARK
 10
53.05
 20
53.2
 30
0.0
  0
SEQEND
  5
649
  8
MARK
  0
POLYLINE
  5
43A
  8
MARK
 66
     1
 10
0.0
 20
0.0
 30
0.0
 40
0.3
 41
0.3
  0
VERTEX
  5
5DC
  8
MARK
 10
53.093934
 20
52.806066
 30
0.0
  0
VERTEX
  5
5DD
  8
MARK
 10
52.793934
 20
52.506066
 30
0.0
  0
SEQEND
  5
64A
  8
MARK
  0
POLYLINE
  5
43B
  8
MARK
 66
     1
 10
0.0
 20
0.0
 30
0.0
 40
0.3
 41
0.3
  0
VERTEX
  5
5DE
  8
MARK
 10
52.3
 20
52.55
 30
0.0
  0
VERTEX
  5
5DF
  8
MARK
 10
52.9
 20
52.55
 30
0.0
  0
SEQEND
  5
64B
  8
MARK
  0
POLYLINE
  5
461
  8
MARK
 66
     1
 10
0.0
 20
0.0
 30
0.0
 40
0.3
 41
0.3
  0
VERTEX
  5
5E0
  8
MARK
 10
54.15
 20
51.5
 30
0.0
  0
VERTEX
  5
5E1
  8
MARK
 10
54.15
 20
53.5
 30
0.0
  0
SEQEND
  5
64C
  8
MARK
  0
POLYLINE
  5
462
  8
MARK
 66
     1
 10
0.0
 20
0.0
 30
0.0
 40
0.3
 41
0.3
  0
VERTEX
  5
5E2
  8
MARK
 10
54.15
 20
51.720577
 30
0.0
  0
VERTEX
  5
5E3
  8
MARK
 10
55.05
 20
53.279423
 30
0.0
  0
SEQEND
  5
64D
  8
MARK
  0
POLYLINE
  5
463
  8
MARK
 66
     1
 10
0.0
 20
0.0
 30
0.0
 40
0.3
 41
0.3
  0
VERTEX
  5
5E4
  8
MARK
 10
55.05
 20
51.5
 30
0.0
  0
VERTEX
  5
5E5
  8
MARK
 10
55.05
 20
53.5
 30
0.0
  0
SEQEND
  5
64E
  8
MARK
  0
POLYLINE
  5
489
  8
MARK
 66
     1
 10
0.0
 20
0.0
 30
0.0
 40
0.3
 41
0.3
  0
VERTEX
  5
5E6
  8
MARK
 10
56.0
 20
53.35
 30
0.0
  0
VERTEX
  5
5E7
  8
MARK
 10
57.2
 20
53.35
 30
0.0
  0
SEQEND
  5
64F
  8
MARK
  0
POLYLINE
  5
48A
  8
MARK
 66
     1
 10
0.0
 20
0.0
 30
0.0
 40
0.3
 41
0.3
  0
VERTEX
  5
5E8
  8
MARK
 10
56.6
 20
51.5
 30
0.0
  0
VERTEX
  5
5E9
  8
MARK
 10
56.6
 20
53.2
 30
0.0
  0
SEQEND
  5
650
  8
MARK
  0
POLYLINE
  5
4B0
  8
MARK
 66
     1
 10
0.0
 20
0.0
 30
0.0
 40
0.3
 41
0.3
  0
VERTEX
  5
5EA
  8
MARK
 10
45.65
 20
48.5
 30
0.0
  0
VERTEX
  5
5EB
  8
MARK
 10
45.65
 20
50.5
 30
0.0
  0
SEQEND
  5
651
  8
MARK
  0
POLYLINE
  5
4B1
  8
MARK
 66
     1
 10
0.0
 20
0.0
 30
0.0
 40
0.3
 41
0.3
  0
VERTEX
  5
5EC
  8
MARK
 10
45.970096
 20
49.38577
 30
0.0
  0
VERTEX
  5
5ED
  8
MARK
 10
46.570096
 20
50.425
 30
0.0
  0
SEQEND
  5
652
  8
MARK
  0
POLYLINE
  5
4B2
  8
MARK
 66
     1
 10
0.0
 20
0.0
 30
0.0
 40
0.3
 41
0.3
  0
VERTEX
  5
5EE
  8
MARK
 10
45.970096
 20
49.61423
 30
0.0
  0
VERTEX
  5
5EF
  8
MARK
 10
46.570096
 20
48.575
 30
0.0
  0
SEQEND
  5
653
  8
MARK
  0
POLYLINE
  5
4B3
  8
MARK
 66
     1
 10
0.0
 20
0.0
 30
0.0
 40
0.3
 41
0.3
  0
VERTEX
  5
5F0
  8
MARK
 10
45.7
 20
49.5
 30
0.0
  0
VERTEX
  5
5F1
  8
MARK
 10
46.1
 20
49.5
 30
0.0
  0
SEQEND
  5
654
  8
MARK
  0
POLYLINE
  5
4D9
  8
MARK
 66
     1
 10
0.0
 20
0.0
 30
0.0
 40
0.3
 41
0.3
  0
VERTEX
  5
5F2
  8
MARK
 10
47.8
 20
50.35
 30
0.0
  0
VERTEX
  5
5F3
  8
MARK
 10
48.35
 20
50.35
 30
0.0
  0
SEQEND
  5
655
  8
MARK
  0
POLYLINE
  5
4DA
  8
MARK
 66
     1
 10
0.0
 20
0.0
 30
0.0
 40
0.3
 41
0.3
  0
VERTEX
  5
5F4
  8
MARK
 10
47.8
 20
48.65
 30
0.0
  0
VERTEX
  5
5F5
  8
MARK
 10
48.4
 20
48.65
 30
0.0
  0
SEQEND
  5
656
  8
MARK
  0
POLYLINE
  5
4DB
  8
MARK
 66
     1
 10
0.0
 20
0.0
 30
0.0
 40
0.3
 41
0.3
  0
VERTEX
  5
5F6
  8
MARK
 10
48.543934
 20
50.093934
 30
0.0
  0
VERTEX
  5
5F7
  8
MARK
 10
48.243934
 20
50.393934
 30
0.0
  0
SEQEND
  5
657
  8
MARK
  0
POLYLINE
  5
4DC
  8
MARK
 66
     1
 10
0.0
 20
0.0
 30
0.0
 40
0.3
 41
0.3
  0
VERTEX
  5
5F8
  8
MARK
 10
48.593934
 20
48.906066
 30
0.0
  0
VERTEX
  5
5F9
  8
MARK
 10
48.293934
 20
48.606066
 30
0.0
  0
SEQEND
  5
658
  8
MARK
  0
POLYLINE
  5
4DD
  8
MARK
 66
     1
 10
0.0
 20
0.0
 30
0.0
 40
0.3
 41
0.3
  0
VERTEX
  5
5FA
  8
MARK
 10
48.55
 20
49.4
 30
0.0
  0
VERTEX
  5
5FB
  8
MARK
 10
48.55
 20
48.8
 30
0.0
  0
SEQEND
  5
659
  8
MARK
  0
POLYLINE
  5
4DE
  8
MARK
 66
     1
 10
0.0
 20
0.0
 30
0.0
 40
0.3
 41
0.3
  0
VERTEX
  5
5FC
  8
MARK
 10
48.593934
 20
49.293934
 30
0.0
  0
VERTEX
  5
5FD
  8
MARK
 10
48.293934
 20
49.593934
 30
0.0
  0
SEQEND
  5
65A
  8
MARK
  0
POLYLINE
  5
4DF
  8
MARK
 66
     1
 10
0.0
 20
0.0
 30
0.0
 40
0.3
 41
0.3
  0
VERTEX
  5
5FE
  8
MARK
 10
47.8
 20
49.55
 30
0.0
  0
VERTEX
  5
5FF
  8
MARK
 10
48.4
 20
49.55
 30
0.0
  0
SEQEND
  5
65B
  8
MARK
  0
POLYLINE
  5
4E0
  8
MARK
 66
     1
 10
0.0
 20
0.0
 30
0.0
 40
0.3
 41
0.3
  0
VERTEX
  5
600
  8
MARK
 10
48.543934
 20
49.806066
 30
0.0
  0
VERTEX
  5
601
  8
MARK
 10
48.243934
 20
49.506066
 30
0.0
  0
SEQEND
  5
65C
  8
MARK
  0
POLYLINE
  5
4E1
  8
MARK
 66
     1
 10
0.0
 20
0.0
 30
0.0
 40
0.3
 41
0.3
  0
VERTEX
  5
602
  8
MARK
 10
48.5
 20
50.2
 30
0.0
  0
VERTEX
  5
603
  8
MARK
 10
48.5
 20
49.7
 30
0.0
  0
SEQEND
  5
65D
  8
MARK
  0
POLYLINE
  5
4E2
  8
MARK
 66
     1
 10
0.0
 20
0.0
 30
0.0
 40
0.3
 41
0.3
  0
VERTEX
  5
604
  8
MARK
 10
47.65
 20
48.5
 30
0.0
  0
VERTEX
  5
605
  8
MARK
 10
47.65
 20
50.5
 30
0.0
  0
SEQEND
  5
65E
  8
MARK
  0
POLYLINE
  5
508
  8
MARK
 66
     1
 10
0.0
 20
0.0
 30
0.0
 40
0.3
 41
0.3
  0
VERTEX
  5
606
  8
MARK
 10
49.645544
 20
48.536288
 30
0.0
  0
VERTEX
  5
607
  8
MARK
 10
50.105196
 20
50.37985
 30
0.0
  0
SEQEND
  5
65F
  8
MARK
  0
POLYLINE
  5
509
  8
MARK
 66
     1
 10
0.0
 20
0.0
 30
0.0
 40
0.3
 41
0.3
  0
VERTEX
  5
608
  8
MARK
 10
50.554456
 20
48.536288
 30
0.0
  0
VERTEX
  5
609
  8
MARK
 10
50.073999
 20
50.463296
 30
0.0
  0
SEQEND
  5
660
  8
MARK
  0
POLYLINE
  5
50A
  8
MARK
 66
     1
 10
0.0
 20
0.0
 30
0.0
 40
0.3
 41
0.3
  0
VERTEX
  5
60A
  8
MARK
 10
49.8
 20
49.05
 30
0.0
  0
VERTEX
  5
60B
  8
MARK
 10
50.4
 20
49.05
 30
0.0
  0
SEQEND
  5
661
  8
MARK
  0
POLYLINE
  5
530
  8
MARK
 66
     1
 10
0.0
 20
0.0
 30
0.0
 40
0.3
 41
0.3
  0
VERTEX
  5
60C
  8
MARK
 10
51.55
 20
50.35
 30
0.0
  0
VERTEX
  5
60D
  8
MARK
 10
52.35
 20
50.35
 30
0.0
  0
SEQEND
  5
662
  8
MARK
  0
POLYLINE
  5
531
  8
MARK
 66
     1
 10
0.0
 20
0.0
 30
0.0
 40
0.3
 41
0.3
  0
VERTEX
  5
60E
  8
MARK
 10
51.55
 20
48.65
 30
0.0
  0
VERTEX
  5
60F
  8
MARK
 10
52.35
 20
48.65
 30
0.0
  0
SEQEND
  5
663
  8
MARK
  0
POLYLINE
  5
532
  8
MARK
 66
     1
 10
0.0
 20
0.0
 30
0.0
 40
0.3
 41
0.3
  0
VERTEX
  5
610
  8
MARK
 10
52.543934
 20
50.093934
 30
0.0
  0
VERTEX
  5
611
  8
MARK
 10
52.243934
 20
50.393934
 30
0.0
  0
SEQEND
  5
664
  8
MARK
  0
POLYLINE
  5
533
  8
MARK
 66
     1
 10
0.0
 20
0.0
 30
0.0
 40
0.3
 41
0.3
  0
VERTEX
  5
612
  8
MARK
 10
52.543934
 20
48.906066
 30
0.0
  0
VERTEX
  5
613
  8
MARK
 10
52.243934
 20
48.606066
 30
0.0
  0
SEQEND
  5
665
  8
MARK
  0
POLYLINE
  5
534
  8
MARK
 66
     1
 10
0.0
 20
0.0
 30
0.0
 40
0.3
 41
0.3
  0
VERTEX
  5
614
  8
MARK
 10
52.5
 20
49.4
 30
0.0
  0
VERTEX
  5
615
  8
MARK
 10
52.5
 20
48.8
 30
0.0
  0
SEQEND
  5
666
  8
MARK
  0
POLYLINE
  5
535
  8
MARK
 66
     1
 10
0.0
 20
0.0
 30
0.0
 40
0.3
 41
0.3
  0
VERTEX
  5
616
  8
MARK
 10
52.543934
 20
49.293934
 30
0.0
  0
VERTEX
  5
617
  8
MARK
 10
52.243934
 20
49.593934
 30
0.0
  0
SEQEND
  5
667
  8
MARK
  0
POLYLINE
  5
536
  8
MARK
 66
     1
 10
0.0
 20
0.0
 30
0.0
 40
0.3
 41
0.3
  0
VERTEX
  5
618
  8
MARK
 10
51.75
 20
49.55
 30
0.0
  0
VERTEX
  5
619
  8
MARK
 10
52.35
 20
49.55
 30
0.0
  0
SEQEND
  5
668
  8
MARK
  0
POLYLINE
  5
537
  8
MARK
 66
     1
 10
0.0
 20
0.0
 30
0.0
 40
0.3
 41
0.3
  0
VERTEX
  5
61A
  8
MARK
 10
52.543934
 20
49.806066
 30
0.0
  0
VERTEX
  5
61B
  8
MARK
 10
52.243934
 20
49.506066
 30
0.0
  0
SEQEND
  5
669
  8
MARK
  0
POLYLINE
  5
538
  8
MARK
 66
     1
 10
0.0
 20
0.0
 30
0.0
 40
0.3
 41
0.3
  0
VERTEX
  5
61C
  8
MARK
 10
52.5
 20
50.2
 30
0.0
  0
VERTEX
  5
61D
  8
MARK
 10
52.5
 20
49.7
 30
0.0
  0
SEQEND
  5
66A
  8
MARK
  0
POLYLINE
  5
539
  8
MARK
 66
     1
 10
0.0
 20
0.0
 30
0.0
 40
0.3
 41
0.3
  0
VERTEX
  5
61E
  8
MARK
 10
53.645544
 20
48.536288
 30
0.0
  0
VERTEX
  5
61F
  8
MARK
 10
54.105196
 20
50.37985
 30
0.0
  0
SEQEND
  5
66B
  8
MARK
  0
POLYLINE
  5
53A
  8
MARK
 66
     1
 10
0.0
 20
0.0
 30
0.0
 40
0.3
 41
0.3
  0
VERTEX
  5
620
  8
MARK
 10
54.554456
 20
48.536288
 30
0.0
  0
VERTEX
  5
621
  8
MARK
 10
54.073999
 20
50.463296
 30
0.0
  0
SEQEND
  5
66C
  8
MARK
  0
POLYLINE
  5
53B
  8
MARK
 66
     1
 10
0.0
 20
0.0
 30
0.0
 40
0.3
 41
0.3
  0
VERTEX
  5
622
  8
MARK
 10
53.8
 20
49.05
 30
0.0
  0
VERTEX
  5
623
  8
MARK
 10
54.4
 20
49.05
 30
0.0
  0
SEQEND
  5
66D
  8
MARK
  0
POLYLINE
  5
53C
  8
MARK
 66
     1
 10
0.0
 20
0.0
 30
0.0
 40
0.3
 41
0.3
  0
VERTEX
  5
624
  8
MARK
 10
55.65
 20
48.5
 30
0.0
  0
VERTEX
  5
625
  8
MARK
 10
55.65
 20
50.5
 30
0.0
  0
SEQEND
  5
66E
  8
MARK
  0
POLYLINE
  5
53D
  8
MARK
 66
     1
 10
0.0
 20
0.0
 30
0.0
 40
0.3
 41
0.3
  0
VERTEX
  5
626
  8
MARK
 10
55.8
 20
50.35
 30
0.0
  0
VERTEX
  5
627
  8
MARK
 10
56.4
 20
50.35
 30
0.0
  0
SEQEND
  5
66F
  8
MARK
  0
POLYLINE
  5
53E
  8
MARK
 66
     1
 10
0.0
 20
0.0
 30
0.0
 40
0.3
 41
0.3
  0
VERTEX
  5
628
  8
MARK
 10
56.593934
 20
50.093934
 30
0.0
  0
VERTEX
  5
629
  8
MARK
 10
56.293934
 20
50.393934
 30
0.0
  0
SEQEND
  5
670
  8
MARK
  0
POLYLINE
  5
53F
  8
MARK
 66
     1
 10
0.0
 20
0.0
 30
0.0
 40
0.3
 41
0.3
  0
VERTEX
  5
62A
  8
MARK
 10
56.55
 20
49.7
 30
0.0
  0
VERTEX
  5
62B
  8
MARK
 10
56.55
 20
50.2
 30
0.0
  0
SEQEND
  5
671
  8
MARK
  0
POLYLINE
  5
540
  8
MARK
 66
     1
 10
0.0
 20
0.0
 30
0.0
 40
0.3
 41
0.3
  0
VERTEX
  5
62C
  8
MARK
 10
56.593934
 20
49.806066
 30
0.0
  0
VERTEX
  5
62D
  8
MARK
 10
56.293934
 20
49.506066
 30
0.0
  0
SEQEND
  5
672
  8
MARK
  0
POLYLINE
  5
541
  8
MARK
 66
     1
 10
0.0
 20
0.0
 30
0.0
 40
0.3
 41
0.3
  0
VERTEX
  5
62E
  8
MARK
 10
55.8
 20
49.55
 30
0.0
  0
VERTEX
  5
62F
  8
MARK
 10
56.4
 20
49.55
 30
0.0
  0
SEQEND
  5
673
  8
MARK
  0
VIEWPORT
  5
228
 67
     1
  8
0
 10
0.0
 20
0.0
 30
0.0
 40
2172.474887
 41
992.070339
 68
     1
 69
     1
1001
ACAD
1000
MVIEW
1002
{
1070
    16
1010
0.0
1020
0.0
1030
0.0
1020
0.0
1030
0.0
1010
0.0
1020
0.0
1030
1.0
1020
0.0
1030
1.0
1040
0.0
1040
992.070339
1040
497.20797
1040
380.27835
1040
50.0
1040
0.0
1040
0.0
1070
    16
1070
   100
1070
     0
1070
     3
1070
     0
1070
     0
1070
     0
1070
     0
1040
0.0
1040
0.0
1040
0.0
1040
10.0
1040
10.0
1040
10.0
1040
10.0
1070
     0
1002
{
1002
}
1002
}
  0
ENDSEC
  0
EOF
