  0
SECTION
  2
ENTITIES
  0
POLYLINE
  8
0
  0
VERTEX
  8
0
 10
38.77553682
 20
60.65
  0
VERTEX
  8
0
 10
38.91648521
 20
60.649877
  0
VERTEX
  8
0
 10
39.05748073
 20
60.64950786
  0
VERTEX
  8
0
 10
39.19857062
 20
60.64889222
  0
VERTEX
  8
0
 10
39.33980243
 20
60.64802945
  0
VERTEX
  8
0
 10
39.48122412
 20
60.64691867
  0
VERTEX
  8
0
 10
39.62288423
 20
60.64555875
  0
VERTEX
  8
0
 10
39.76483201
 20
60.64394829
  0
VERTEX
  8
0
 10
39.9071176
 20
60.64208561
  0
VERTEX
  8
0
 10
40.04979218
 20
60.63996878
  0
VERTEX
  8
0
 10
40.19290814
 20
60.63759554
  0
VERTEX
  8
0
 10
40.3365193
 20
60.63496336
  0
VERTEX
  8
0
 10
40.48068105
 20
60.63206937
  0
VERTEX
  8
0
 10
40.62545063
 20
60.62891039
  0
VERTEX
  8
0
 10
40.77088731
 20
60.62548289
  0
VERTEX
  8
0
 10
40.91705265
 20
60.62178294
  0
VERTEX
  8
0
 10
41.06401081
 20
60.61780625
  0
VERTEX
  8
0
 10
41.21182881
 20
60.61354808
  0
VERTEX
  8
0
 10
41.36057689
 20
60.60900328
  0
VERTEX
  8
0
 10
41.51032885
 20
60.60416616
  0
VERTEX
  8
0
 10
41.66116252
 20
60.59903055
  0
VERTEX
  8
0
 10
41.81316018
 20
60.59358969
  0
VERTEX
  8
0
 10
41.96640907
 20
60.5878362
  0
VERTEX
  8
0
 10
42.12100205
 20
60.58176202
  0
VERTEX
  8
0
 10
42.27703818
 20
60.57535835
  0
VERTEX
  8
0
 10
42.43462358
 20
60.56861557
  0
VERTEX
  8
0
 10
42.59387223
 20
60.56152313
  0
VERTEX
  8
0
 10
42.75490704
 20
60.55406948
  0
VERTEX
  8
0
 10
42.917861
 20
60.54624195
  0
VERTEX
  8
0
 10
43.08287857
 20
60.53802658
  0
VERTEX
  8
0
 10
43.2501173
 20
60.52940796
  0
VERTEX
  8
0
 10
43.4197497
 20
60.5203691
  0
VERTEX
  8
0
 10
43.59196554
 20
60.51089109
  0
VERTEX
  8
0
 10
43.76697454
 20
60.50095293
  0
VERTEX
  8
0
 10
43.94500965
 20
60.49053114
  0
VERTEX
  8
0
 10
44.126331
 20
60.47959937
  0
VERTEX
  8
0
 10
44.31123082
 20
60.46812789
  0
VERTEX
  8
0
 10
44.50003947
 20
60.45608303
  0
VERTEX
  8
0
 10
44.69313303
 20
60.44342635
  0
VERTEX
  8
0
 10
44.89094295
 20
60.43011371
  0
VERTEX
  8
0
 10
45.09396842
 20
60.41609401
  0
VERTEX
  8
0
 10
45.30279251
 20
60.40130757
  0
VERTEX
  8
0
 10
45.51810369
 20
60.385684
  0
VERTEX
  8
0
 10
45.74072487
 20
60.36913924
  0
VERTEX
  8
0
 10
45.97165356
 20
60.35157165
  0
VERTEX
  8
0
 10
46.21211903
 20
60.33285623
  0
VERTEX
  8
0
 10
46.46366573
 20
60.31283643
  0
VERTEX
  8
0
 10
46.72827994
 20
60.29131156
  0
VERTEX
  8
0
 10
47.00859014
 20
60.26801704
  0
VERTEX
  8
0
 10
47.30820192
 20
60.24259145
  0
VERTEX
  8
0
 10
47.63229712
 20
60.21451768
  0
VERTEX
  8
0
 10
47.98880818
 20
60.18300795
  0
VERTEX
  8
0
 10
48.39103208
 20
60.1467485
  0
VERTEX
  8
0
 10
48.86469665
 20
60.10321136
  0
VERTEX
  8
0
 10
49.4750453
 20
60.04602441
  0
VERTEX
  8
0
 10
50.67687749
 20
59.93113105
  0
VERTEX
  8
0
 10
51.32312251
 20
59.86886895
  0
VERTEX
  8
0
 10
52.5249547
 20
59.75397559
  0
VERTEX
  8
0
 10
53.13530335
 20
59.69678864
  0
VERTEX
  8
0
 10
53.60896792
 20
59.6532515
  0
VERTEX
  8
0
 10
54.01119182
 20
59.61699205
  0
VERTEX
  8
0
 10
54.36770288
 20
59.58548232
  0
VERTEX
  8
0
 10
54.69179808
 20
59.55740855
  0
VERTEX
  8
0
 10
54.99140986
 20
59.53198296
  0
VERTEX
  8
0
 10
55.27172006
 20
59.50868844
  0
VERTEX
  8
0
 10
55.53633427
 20
59.48716357
  0
VERTEX
  8
0
 10
55.78788097
 20
59.46714377
  0
VERTEX
  8
0
 10
56.02834644
 20
59.44842835
  0
VERTEX
  8
0
 10
56.25927513
 20
59.43086076
  0
VERTEX
  8
0
 10
56.48189631
 20
59.414316
  0
VERTEX
  8
0
 10
56.69720749
 20
59.39869243
  0
VERTEX
  8
0
 10
56.90603158
 20
59.38390599
  0
VERTEX
  8
0
 10
57.10905705
 20
59.36988629
  0
VERTEX
  8
0
 10
57.30686697
 20
59.35657365
  0
VERTEX
  8
0
 10
57.49996053
 20
59.34391697
  0
VERTEX
  8
0
 10
57.68876918
 20
59.33187211
  0
VERTEX
  8
0
 10
57.873669
 20
59.32040063
  0
VERTEX
  8
0
 10
58.05499035
 20
59.30946886
  0
VERTEX
  8
0
 10
58.23302546
 20
59.29904707
  0
VERTEX
  8
0
 10
58.40803446
 20
59.28910891
  0
VERTEX
  8
0
 10
58.5802503
 20
59.2796309
  0
VERTEX
  8
0
 10
58.7498827
 20
59.27059204
  0
VERTEX
  8
0
 10
58.91712143
 20
59.26197342
  0
VERTEX
  8
0
 10
59.082139
 20
59.25375805
  0
VERTEX
  8
0
 10
59.24509296
 20
59.24593052
  0
VERTEX
  8
0
 10
59.40612777
 20
59.23847687
  0
VERTEX
  8
0
 10
59.56537642
 20
59.23138443
  0
VERTEX
  8
0
 10
59.72296182
 20
59.22464165
  0
VERTEX
  8
0
 10
59.87899795
 20
59.21823798
  0
VERTEX
  8
0
 10
60.03359093
 20
59.2121638
  0
VERTEX
  8
0
 10
60.18683982
 20
59.20641031
  0
VERTEX
  8
0
 10
60.33883748
 20
59.20096945
  0
VERTEX
  8
0
 10
60.48967115
 20
59.19583384
  0
VERTEX
  8
0
 10
60.63942311
 20
59.19099672
  0
VERTEX
  8
0
 10
60.78817119
 20
59.18645192
  0
VERTEX
  8
0
 10
60.93598919
 20
59.18219375
  0
VERTEX
  8
0
 10
61.08294735
 20
59.17821706
  0
VERTEX
  8
0
 10
61.22911269
 20
59.17451711
  0
VERTEX
  8
0
 10
61.37454937
 20
59.17108961
  0
VERTEX
  8
0
 10
61.51931895
 20
59.16793063
  0
VERTEX
  8
0
 10
61.6634807
 20
59.16503664
  0
VERTEX
  8
0
 10
61.80709186
 20
59.16240446
  0
VERTEX
  8
0
 10
61.95020782
 20
59.16003122
  0
VERTEX
  8
0
 10
62.0928824
 20
59.15791439
  0
VERTEX
  8
0
 10
62.23516799
 20
59.15605171
  0
VERTEX
  8
0
 10
62.37711577
 20
59.15444125
  0
VERTEX
  8
0
 10
62.51877588
 20
59.15308133
  0
VERTEX
  8
0
 10
62.66019757
 20
59.15197055
  0
VERTEX
  8
0
 10
62.80142938
 20
59.15110778
  0
VERTEX
  8
0
 10
62.94251927
 20
59.15049214
  0
VERTEX
  8
0
 10
63.08351479
 20
59.150123
  0
VERTEX
  8
0
 10
63.22446318
 20
59.15
  0
SEQEND
  8
0
  0
ENDSEC
  0
EOF