  0
SECTION
  2
HEADER
  9
$ACADVER
  1
AC1009
  9
$DWGCODEPAGE
  3
ansi_1251
  9
$INSBASE
 10
0.0
 20
0.0
 30
0.0
  9
$EXTMIN
 10
45.0
 20
48.5
 30
0.0
  9
$EXTMAX
 10
57.2
 20
53.5
 30
0.0
  9
$LIMMIN
 10
0.0
 20
0.0
  9
$LIMMAX
 10
12.0
 20
9.0
  9
$ORTHOMODE
 70
     0
  9
$REGENMODE
 70
     1
  9
$FILLMODE
 70
     1
  9
$QTEXTMODE
 70
     0
  9
$MIRRTEXT
 70
     1
  9
$DRAGMODE
 70
     2
  9
$LTSCALE
 40
1.0
  9
$OSMODE
 70
    37
  9
$ATTMODE
 70
     1
  9
$TEXTSIZE
 40
250.0
  9
$TRACEWID
 40
0.05
  9
$TEXTSTYLE
  7
STANDARD
  9
$CLAYER
  8
0
  9
$CELTYPE
  6
BYBLOCK
  9
$CECOLOR
 62
   256
  9
$DIMSCALE
 40
100.0
  9
$DIMASZ
 40
0.18
  9
$DIMEXO
 40
0.0625
  9
$DIMDLI
 40
0.38
  9
$DIMRND
 40
0.0
  9
$DIMDLE
 40
0.0
  9
$DIMEXE
 40
0.18
  9
$DIMTP
 40
0.0
  9
$DIMTM
 40
0.0
  9
$DIMTXT
 40
0.18
  9
$DIMCEN
 40
0.09
  9
$DIMTSZ
 40
0.0
  9
$DIMTOL
 70
     0
  9
$DIMLIM
 70
     0
  9
$DIMTIH
 70
     1
  9
$DIMTOH
 70
     1
  9
$DIMSE1
 70
     0
  9
$DIMSE2
 70
     0
  9
$DIMTAD
 70
     0
  9
$DIMZIN
 70
     0
  9
$DIMBLK
  1

  9
$DIMASO
 70
     1
  9
$DIMSHO
 70
     1
  9
$DIMPOST
  1

  9
$DIMAPOST
  1

  9
$DIMALT
 70
     0
  9
$DIMALTD
 70
     2
  9
$DIMALTF
 40
25.4
  9
$DIMLFAC
 40
1.0
  9
$DIMTOFL
 70
     0
  9
$DIMTVP
 40
0.0
  9
$DIMTIX
 70
     0
  9
$DIMSOXD
 70
     0
  9
$DIMSAH
 70
     0
  9
$DIMBLK1
  1

  9
$DIMBLK2
  1

  9
$DIMSTYLE
  2
STANDARD
  9
$DIMCLRD
 70
     0
  9
$DIMCLRE
 70
     0
  9
$DIMCLRT
 70
     0
  9
$DIMTFAC
 40
1.0
  9
$DIMGAP
 40
0.09
  9
$LUNITS
 70
     2
  9
$LUPREC
 70
     4
  9
$SKETCHINC
 40
0.1
  9
$FILLETRAD
 40
0.5
  9
$AUNITS
 70
     0
  9
$AUPREC
 70
     0
  9
$MENU
  1
.
  9
$ELEVATION
 40
0.0
  9
$PELEVATION
 40
0.0
  9
$THICKNESS
 40
0.0
  9
$LIMCHECK
 70
     0
  9
$CHAMFERA
 40
0.0
  9
$CHAMFERB
 40
0.0
  9
$SKPOLY
 70
     0
  9
$TDCREATE
 40
2456781.911445602
  9
$TDUPDATE
 40
2456878.649684965
  9
$TDINDWG
 40
0.0000000116
  9
$TDUSRTIMER
 40
0.0000000116
  9
$USRTIMER
 70
     1
  9
$ANGBASE
 50
0.0
  9
$ANGDIR
 70
     0
  9
$PDMODE
 70
     0
  9
$PDSIZE
 40
0.0
  9
$PLINEWID
 40
0.0
  9
$COORDS
 70
     1
  9
$SPLFRAME
 70
     0
  9
$SPLINETYPE
 70
     6
  9
$SPLINESEGS
 70
     8
  9
$ATTDIA
 70
     0
  9
$ATTREQ
 70
     1
  9
$HANDLING
 70
     1
  9
$HANDSEED
  5
3A5
  9
$SURFTAB1
 70
     6
  9
$SURFTAB2
 70
     6
  9
$SURFTYPE
 70
     6
  9
$SURFU
 70
     6
  9
$SURFV
 70
     6
  9
$UCSNAME
  2

  9
$UCSORG
 10
0.0
 20
0.0
 30
0.0
  9
$UCSXDIR
 10
1.0
 20
0.0
 30
0.0
  9
$UCSYDIR
 10
0.0
 20
1.0
 30
0.0
  9
$PUCSNAME
  2

  9
$PUCSORG
 10
0.0
 20
0.0
 30
0.0
  9
$PUCSXDIR
 10
1.0
 20
0.0
 30
0.0
  9
$PUCSYDIR
 10
0.0
 20
1.0
 30
0.0
  9
$USERI1
 70
     0
  9
$USERI2
 70
     0
  9
$USERI3
 70
     0
  9
$USERI4
 70
     0
  9
$USERI5
 70
     0
  9
$USERR1
 40
0.0
  9
$USERR2
 40
0.0
  9
$USERR3
 40
0.0
  9
$USERR4
 40
0.0
  9
$USERR5
 40
0.0
  9
$WORLDVIEW
 70
     1
  9
$SHADEDGE
 70
     3
  9
$SHADEDIF
 70
    70
  9
$TILEMODE
 70
     1
  9
$MAXACTVP
 70
    64
  9
$PLIMCHECK
 70
     0
  9
$PEXTMIN
 10
1.000000E+20
 20
1.000000E+20
 30
1.000000E+20
  9
$PEXTMAX
 10
-1.000000E+20
 20
-1.000000E+20
 30
-1.000000E+20
  9
$PLIMMIN
 10
0.0
 20
0.0
  9
$PLIMMAX
 10
12.0
 20
9.0
  9
$UNITMODE
 70
     0
  9
$VISRETAIN
 70
     1
  9
$PLINEGEN
 70
     0
  9
$PSLTSCALE
 70
     0
  0
ENDSEC
  0
SECTION
  2
TABLES
  0
TABLE
  2
VPORT
 70
     1
  0
VPORT
  2
*ACTIVE
 70
     0
 10
0.0
 20
0.0
 11
1.0
 21
1.0
 12
51.1
 22
51.0
 13
0.0
 23
0.0
 14
0.5
 24
0.5
 15
0.5
 25
0.5
 16
0.0
 26
0.0
 36
1.0
 17
0.0
 27
0.0
 37
0.0
 40
9.776518
 41
1.272846
 42
50.0
 43
0.0
 44
0.0
 50
0.0
 51
0.0
 71
    16
 72
   100
 73
     1
 74
     3
 75
     0
 76
     0
 77
     0
 78
     0
  0
ENDTAB
  0
TABLE
  2
LTYPE
 70
     1
  0
LTYPE
  2
CONTINUOUS
 70
     0
  3
Solid line
 72
    65
 73
     0
 40
0.0
  0
ENDTAB
  0
TABLE
  2
LAYER
 70
     4
  0
LAYER
  2
0
 70
     0
 62
     7
  6
CONTINUOUS
  0
LAYER
  2
FERRIT
 70
     0
 62
     5
  6
CONTINUOUS
  0
LAYER
  2
QUASAR
 70
     0
 62
     3
  6
CONTINUOUS
  0
LAYER
  2
RRR
 70
     0
 62
     2
  6
CONTINUOUS
  0
ENDTAB
  0
TABLE
  2
STYLE
 70
     1
  0
STYLE
  2
STANDARD
 70
     0
 40
0.0
 41
1.0
 50
0.0
 71
     0
 42
250.0
  3
txt
  4

  0
ENDTAB
  0
TABLE
  2
VIEW
 70
     0
  0
ENDTAB
  0
TABLE
  2
UCS
 70
     0
  0
ENDTAB
  0
TABLE
  2
APPID
 70
     6
  0
APPID
  2
ACAD
 70
     0
  0
APPID
  2
MCS_DIM1
 70
     0
  0
APPID
  2
MCSXDATA5
 70
     0
  0
APPID
  2
MCS_DOCUMENT_ID
 70
     0
  0
APPID
  2
MCS_PARAMS_DATA
 70
     0
  0
APPID
  2
MC_VERSION_DATA
 70
     0
  0
ENDTAB
  0
TABLE
  2
DIMSTYLE
 70
     1
  0
DIMSTYLE
  2
STANDARD
 70
     0
  3

  4

  5

  6

  7

 40
1.0
 41
0.18
 42
0.0625
 43
0.38
 44
0.18
 45
0.0
 46
0.0
 47
0.0
 48
0.0
140
0.18
141
0.09
142
0.0
143
25.4
144
1.0
145
0.0
146
1.0
147
0.09
 71
     0
 72
     0
 73
     1
 74
     1
 75
     0
 76
     0
 77
     0
 78
     0
170
     0
171
     2
172
     0
173
     0
174
     0
175
     0
176
     0
177
     0
178
     0
  0
ENDTAB
  0
ENDSEC
  0
SECTION
  2
BLOCKS
  0
BLOCK
  8
0
  2
$MODEL_SPACE
 70
     0
 10
0.0
 20
0.0
 30
0.0
  3
$MODEL_SPACE
  1

  0
ENDBLK
  5
156
  8
0
  0
BLOCK
 67
     1
  8
0
  2
$PAPER_SPACE
 70
     0
 10
0.0
 20
0.0
 30
0.0
  3
$PAPER_SPACE
  1

  0
ENDBLK
  5
158
 67
     1
  8
0
  0
ENDSEC
  0
SECTION
  2
ENTITIES
  0
POLYLINE
  5
21
  8
FERRIT
 66
     1
 10
0.0
 20
0.0
 30
0.0
 40
0.3
 41
0.3
  0
VERTEX
  5
2D8
  8
FERRIT
 10
46.1
 20
51.5
 30
0.0
  0
VERTEX
  5
2D9
  8
FERRIT
 10
46.1
 20
52.3
 30
0.0
  0
SEQEND
  5
361
  8
FERRIT
  0
POLYLINE
  5
25
  8
FERRIT
 66
     1
 10
0.0
 20
0.0
 30
0.0
 40
0.3
 41
0.3
  0
VERTEX
  5
2DA
  8
FERRIT
 10
45.3
 20
52.25
 30
0.0
  0
VERTEX
  5
2DB
  8
FERRIT
 10
46.1
 20
52.25
 30
0.0
  0
SEQEND
  5
362
  8
FERRIT
  0
POLYLINE
  5
29
  8
FERRIT
 66
     1
 10
0.0
 20
0.0
 30
0.0
 40
0.3
 41
0.3
  0
VERTEX
  5
2DC
  8
FERRIT
 10
45.106066
 20
52.506066
 30
0.0
  0
VERTEX
  5
2DD
  8
FERRIT
 10
45.406066
 20
52.206066
 30
0.0
  0
SEQEND
  5
363
  8
FERRIT
  0
POLYLINE
  5
2D
  8
FERRIT
 66
     1
 10
0.0
 20
0.0
 30
0.0
 40
0.3
 41
0.3
  0
VERTEX
  5
2DE
  8
FERRIT
 10
45.3
 20
53.35
 30
0.0
  0
VERTEX
  5
2DF
  8
FERRIT
 10
46.1
 20
53.35
 30
0.0
  0
SEQEND
  5
364
  8
FERRIT
  0
POLYLINE
  5
31
  8
FERRIT
 66
     1
 10
0.0
 20
0.0
 30
0.0
 40
0.3
 41
0.3
  0
VERTEX
  5
2E0
  8
FERRIT
 10
45.106066
 20
53.093934
 30
0.0
  0
VERTEX
  5
2E1
  8
FERRIT
 10
45.406066
 20
53.393934
 30
0.0
  0
SEQEND
  5
365
  8
FERRIT
  0
POLYLINE
  5
35
  8
FERRIT
 66
     1
 10
0.0
 20
0.0
 30
0.0
 40
0.3
 41
0.3
  0
VERTEX
  5
2E2
  8
FERRIT
 10
45.15
 20
53.2
 30
0.0
  0
VERTEX
  5
2E3
  8
FERRIT
 10
45.15
 20
52.4
 30
0.0
  0
SEQEND
  5
366
  8
FERRIT
  0
POLYLINE
  5
39
  8
FERRIT
 66
     1
 10
0.0
 20
0.0
 30
0.0
 40
0.3
 41
0.3
  0
VERTEX
  5
2E4
  8
FERRIT
 10
46.9
 20
52.25
 30
0.0
  0
VERTEX
  5
2E5
  8
FERRIT
 10
46.1
 20
52.25
 30
0.0
  0
SEQEND
  5
367
  8
FERRIT
  0
POLYLINE
  5
3D
  8
FERRIT
 66
     1
 10
0.0
 20
0.0
 30
0.0
 40
0.3
 41
0.3
  0
VERTEX
  5
2E6
  8
FERRIT
 10
47.093934
 20
52.506066
 30
0.0
  0
VERTEX
  5
2E7
  8
FERRIT
 10
46.793934
 20
52.206066
 30
0.0
  0
SEQEND
  5
368
  8
FERRIT
  0
POLYLINE
  5
41
  8
FERRIT
 66
     1
 10
0.0
 20
0.0
 30
0.0
 40
0.3
 41
0.3
  0
VERTEX
  5
2E8
  8
FERRIT
 10
46.9
 20
53.35
 30
0.0
  0
VERTEX
  5
2E9
  8
FERRIT
 10
46.1
 20
53.35
 30
0.0
  0
SEQEND
  5
369
  8
FERRIT
  0
POLYLINE
  5
45
  8
FERRIT
 66
     1
 10
0.0
 20
0.0
 30
0.0
 40
0.3
 41
0.3
  0
VERTEX
  5
2EA
  8
FERRIT
 10
47.093934
 20
53.093934
 30
0.0
  0
VERTEX
  5
2EB
  8
FERRIT
 10
46.793934
 20
53.393934
 30
0.0
  0
SEQEND
  5
36A
  8
FERRIT
  0
POLYLINE
  5
49
  8
FERRIT
 66
     1
 10
0.0
 20
0.0
 30
0.0
 40
0.3
 41
0.3
  0
VERTEX
  5
2EC
  8
FERRIT
 10
47.05
 20
53.2
 30
0.0
  0
VERTEX
  5
2ED
  8
FERRIT
 10
47.05
 20
52.4
 30
0.0
  0
SEQEND
  5
36B
  8
FERRIT
  0
POLYLINE
  5
4D
  8
FERRIT
 66
     1
 10
0.0
 20
0.0
 30
0.0
 40
0.3
 41
0.3
  0
VERTEX
  5
2EE
  8
FERRIT
 10
46.1
 20
52.4
 30
0.0
  0
VERTEX
  5
2EF
  8
FERRIT
 10
46.1
 20
53.2
 30
0.0
  0
SEQEND
  5
36C
  8
FERRIT
  0
POLYLINE
  5
51
  8
FERRIT
 62
   130
 66
     1
 10
0.0
 20
0.0
 30
0.0
 40
0.3
 41
0.3
  0
VERTEX
  5
2F0
  8
FERRIT
 62
   130
 10
48.3
 20
51.65
 30
0.0
  0
VERTEX
  5
2F1
  8
FERRIT
 62
   130
 10
49.2
 20
51.65
 30
0.0
  0
SEQEND
  5
36D
  8
FERRIT
 62
   130
  0
POLYLINE
  5
55
  8
FERRIT
 62
   130
 66
     1
 10
0.0
 20
0.0
 30
0.0
 40
0.3
 41
0.3
  0
VERTEX
  5
2F2
  8
FERRIT
 62
   130
 10
48.3
 20
53.35
 30
0.0
  0
VERTEX
  5
2F3
  8
FERRIT
 62
   130
 10
49.2
 20
53.35
 30
0.0
  0
SEQEND
  5
36E
  8
FERRIT
 62
   130
  0
POLYLINE
  5
59
  8
FERRIT
 62
   130
 66
     1
 10
0.0
 20
0.0
 30
0.0
 40
0.3
 41
0.3
  0
VERTEX
  5
2F4
  8
FERRIT
 62
   130
 10
48.3
 20
52.5
 30
0.0
  0
VERTEX
  5
2F5
  8
FERRIT
 62
   130
 10
48.9
 20
52.5
 30
0.0
  0
SEQEND
  5
36F
  8
FERRIT
 62
   130
  0
POLYLINE
  5
5D
  8
FERRIT
 62
   130
 66
     1
 10
0.0
 20
0.0
 30
0.0
 40
0.3
 41
0.3
  0
VERTEX
  5
2F6
  8
FERRIT
 62
   130
 10
48.15
 20
51.5
 30
0.0
  0
VERTEX
  5
2F7
  8
FERRIT
 62
   130
 10
48.15
 20
53.5
 30
0.0
  0
SEQEND
  5
370
  8
FERRIT
 62
   130
  0
POLYLINE
  5
61
  8
RRR
 66
     1
 10
0.0
 20
0.0
 30
0.0
 40
0.3
 41
0.3
  0
VERTEX
  5
2F8
  8
RRR
 10
50.15
 20
51.5
 30
0.0
  0
VERTEX
  5
2F9
  8
RRR
 10
50.15
 20
53.5
 30
0.0
  0
SEQEND
  5
371
  8
RRR
  0
POLYLINE
  5
65
  8
RRR
 66
     1
 10
0.0
 20
0.0
 30
0.0
 40
0.3
 41
0.3
  0
VERTEX
  5
2FA
  8
RRR
 10
50.3
 20
53.35
 30
0.0
  0
VERTEX
  5
2FB
  8
RRR
 10
50.9
 20
53.35
 30
0.0
  0
SEQEND
  5
372
  8
RRR
  0
POLYLINE
  5
69
  8
RRR
 66
     1
 10
0.0
 20
0.0
 30
0.0
 40
0.3
 41
0.3
  0
VERTEX
  5
2FC
  8
RRR
 10
51.093934
 20
53.093934
 30
0.0
  0
VERTEX
  5
2FD
  8
RRR
 10
50.793934
 20
53.393934
 30
0.0
  0
SEQEND
  5
373
  8
RRR
  0
POLYLINE
  5
6D
  8
RRR
 66
     1
 10
0.0
 20
0.0
 30
0.0
 40
0.3
 41
0.3
  0
VERTEX
  5
2FE
  8
RRR
 10
51.05
 20
52.7
 30
0.0
  0
VERTEX
  5
2FF
  8
RRR
 10
51.05
 20
53.2
 30
0.0
  0
SEQEND
  5
374
  8
RRR
  0
POLYLINE
  5
71
  8
RRR
 66
     1
 10
0.0
 20
0.0
 30
0.0
 40
0.3
 41
0.3
  0
VERTEX
  5
300
  8
RRR
 10
51.093934
 20
52.806066
 30
0.0
  0
VERTEX
  5
301
  8
RRR
 10
50.793934
 20
52.506066
 30
0.0
  0
SEQEND
  5
375
  8
RRR
  0
POLYLINE
  5
75
  8
RRR
 66
     1
 10
0.0
 20
0.0
 30
0.0
 40
0.3
 41
0.3
  0
VERTEX
  5
302
  8
RRR
 10
50.3
 20
52.55
 30
0.0
  0
VERTEX
  5
303
  8
RRR
 10
50.9
 20
52.55
 30
0.0
  0
SEQEND
  5
376
  8
RRR
  0
POLYLINE
  5
79
  8
RRR
 62
    51
 66
     1
 10
0.0
 20
0.0
 30
0.0
 40
0.3
 41
0.3
  0
VERTEX
  5
304
  8
RRR
 62
    51
 10
52.15
 20
51.5
 30
0.0
  0
VERTEX
  5
305
  8
RRR
 62
    51
 10
52.15
 20
53.5
 30
0.0
  0
SEQEND
  5
377
  8
RRR
 62
    51
  0
POLYLINE
  5
7D
  8
RRR
 62
    51
 66
     1
 10
0.0
 20
0.0
 30
0.0
 40
0.3
 41
0.3
  0
VERTEX
  5
306
  8
RRR
 62
    51
 10
52.3
 20
53.35
 30
0.0
  0
VERTEX
  5
307
  8
RRR
 62
    51
 10
52.9
 20
53.35
 30
0.0
  0
SEQEND
  5
378
  8
RRR
 62
    51
  0
POLYLINE
  5
81
  8
RRR
 62
    51
 66
     1
 10
0.0
 20
0.0
 30
0.0
 40
0.3
 41
0.3
  0
VERTEX
  5
308
  8
RRR
 62
    51
 10
53.093934
 20
53.093934
 30
0.0
  0
VERTEX
  5
309
  8
RRR
 62
    51
 10
52.793934
 20
53.393934
 30
0.0
  0
SEQEND
  5
379
  8
RRR
 62
    51
  0
POLYLINE
  5
85
  8
RRR
 62
    51
 66
     1
 10
0.0
 20
0.0
 30
0.0
 40
0.3
 41
0.3
  0
VERTEX
  5
30A
  8
RRR
 62
    51
 10
53.05
 20
52.7
 30
0.0
  0
VERTEX
  5
30B
  8
RRR
 62
    51
 10
53.05
 20
53.2
 30
0.0
  0
SEQEND
  5
37A
  8
RRR
 62
    51
  0
POLYLINE
  5
89
  8
RRR
 62
    51
 66
     1
 10
0.0
 20
0.0
 30
0.0
 40
0.3
 41
0.3
  0
VERTEX
  5
30C
  8
RRR
 62
    51
 10
53.093934
 20
52.806066
 30
0.0
  0
VERTEX
  5
30D
  8
RRR
 62
    51
 10
52.793934
 20
52.506066
 30
0.0
  0
SEQEND
  5
37B
  8
RRR
 62
    51
  0
POLYLINE
  5
8D
  8
RRR
 62
    51
 66
     1
 10
0.0
 20
0.0
 30
0.0
 40
0.3
 41
0.3
  0
VERTEX
  5
30E
  8
RRR
 62
    51
 10
52.3
 20
52.55
 30
0.0
  0
VERTEX
  5
30F
  8
RRR
 62
    51
 10
52.9
 20
52.55
 30
0.0
  0
SEQEND
  5
37C
  8
RRR
 62
    51
  0
POLYLINE
  5
91
  8
FERRIT
 62
   140
 66
     1
 10
0.0
 20
0.0
 30
0.0
 40
0.3
 41
0.3
  0
VERTEX
  5
310
  8
FERRIT
 62
   140
 10
54.15
 20
51.5
 30
0.0
  0
VERTEX
  5
311
  8
FERRIT
 62
   140
 10
54.15
 20
53.5
 30
0.0
  0
SEQEND
  5
37D
  8
FERRIT
 62
   140
  0
POLYLINE
  5
95
  8
FERRIT
 62
   140
 66
     1
 10
0.0
 20
0.0
 30
0.0
 40
0.3
 41
0.3
  0
VERTEX
  5
312
  8
FERRIT
 62
   140
 10
54.15
 20
51.720577
 30
0.0
  0
VERTEX
  5
313
  8
FERRIT
 62
   140
 10
55.05
 20
53.279423
 30
0.0
  0
SEQEND
  5
37E
  8
FERRIT
 62
   140
  0
POLYLINE
  5
99
  8
FERRIT
 62
   140
 66
     1
 10
0.0
 20
0.0
 30
0.0
 40
0.3
 41
0.3
  0
VERTEX
  5
314
  8
FERRIT
 62
   140
 10
55.05
 20
51.5
 30
0.0
  0
VERTEX
  5
315
  8
FERRIT
 62
   140
 10
55.05
 20
53.5
 30
0.0
  0
SEQEND
  5
37F
  8
FERRIT
 62
   140
  0
POLYLINE
  5
9D
  8
FERRIT
 66
     1
 10
0.0
 20
0.0
 30
0.0
 40
0.3
 41
0.3
  0
VERTEX
  5
316
  8
FERRIT
 10
56.0
 20
53.35
 30
0.0
  0
VERTEX
  5
317
  8
FERRIT
 10
57.2
 20
53.35
 30
0.0
  0
SEQEND
  5
380
  8
FERRIT
  0
POLYLINE
  5
A1
  8
FERRIT
 66
     1
 10
0.0
 20
0.0
 30
0.0
 40
0.3
 41
0.3
  0
VERTEX
  5
318
  8
FERRIT
 10
56.6
 20
51.5
 30
0.0
  0
VERTEX
  5
319
  8
FERRIT
 10
56.6
 20
53.2
 30
0.0
  0
SEQEND
  5
381
  8
FERRIT
  0
POLYLINE
  5
A5
  8
QUASAR
 62
    94
 66
     1
 10
0.0
 20
0.0
 30
0.0
 40
0.3
 41
0.3
  0
VERTEX
  5
31A
  8
QUASAR
 62
    94
 10
45.65
 20
48.5
 30
0.0
  0
VERTEX
  5
31B
  8
QUASAR
 62
    94
 10
45.65
 20
50.5
 30
0.0
  0
SEQEND
  5
382
  8
QUASAR
 62
    94
  0
POLYLINE
  5
A9
  8
QUASAR
 62
    94
 66
     1
 10
0.0
 20
0.0
 30
0.0
 40
0.3
 41
0.3
  0
VERTEX
  5
31C
  8
QUASAR
 62
    94
 10
45.970096
 20
49.38577
 30
0.0
  0
VERTEX
  5
31D
  8
QUASAR
 62
    94
 10
46.570096
 20
50.425
 30
0.0
  0
SEQEND
  5
383
  8
QUASAR
 62
    94
  0
POLYLINE
  5
AD
  8
QUASAR
 62
    94
 66
     1
 10
0.0
 20
0.0
 30
0.0
 40
0.3
 41
0.3
  0
VERTEX
  5
31E
  8
QUASAR
 62
    94
 10
45.970096
 20
49.61423
 30
0.0
  0
VERTEX
  5
31F
  8
QUASAR
 62
    94
 10
46.570096
 20
48.575
 30
0.0
  0
SEQEND
  5
384
  8
QUASAR
 62
    94
  0
POLYLINE
  5
B1
  8
QUASAR
 62
    94
 66
     1
 10
0.0
 20
0.0
 30
0.0
 40
0.3
 41
0.3
  0
VERTEX
  5
320
  8
QUASAR
 62
    94
 10
45.7
 20
49.5
 30
0.0
  0
VERTEX
  5
321
  8
QUASAR
 62
    94
 10
46.1
 20
49.5
 30
0.0
  0
SEQEND
  5
385
  8
QUASAR
 62
    94
  0
POLYLINE
  5
B5
  8
QUASAR
 66
     1
 10
0.0
 20
0.0
 30
0.0
 40
0.3
 41
0.3
  0
VERTEX
  5
322
  8
QUASAR
 10
47.8
 20
50.35
 30
0.0
  0
VERTEX
  5
323
  8
QUASAR
 10
48.35
 20
50.35
 30
0.0
  0
SEQEND
  5
386
  8
QUASAR
  0
POLYLINE
  5
B9
  8
QUASAR
 66
     1
 10
0.0
 20
0.0
 30
0.0
 40
0.3
 41
0.3
  0
VERTEX
  5
324
  8
QUASAR
 10
47.8
 20
48.65
 30
0.0
  0
VERTEX
  5
325
  8
QUASAR
 10
48.4
 20
48.65
 30
0.0
  0
SEQEND
  5
387
  8
QUASAR
  0
POLYLINE
  5
BD
  8
QUASAR
 66
     1
 10
0.0
 20
0.0
 30
0.0
 40
0.3
 41
0.3
  0
VERTEX
  5
326
  8
QUASAR
 10
48.543934
 20
50.093934
 30
0.0
  0
VERTEX
  5
327
  8
QUASAR
 10
48.243934
 20
50.393934
 30
0.0
  0
SEQEND
  5
388
  8
QUASAR
  0
POLYLINE
  5
C1
  8
QUASAR
 66
     1
 10
0.0
 20
0.0
 30
0.0
 40
0.3
 41
0.3
  0
VERTEX
  5
328
  8
QUASAR
 10
48.593934
 20
48.906066
 30
0.0
  0
VERTEX
  5
329
  8
QUASAR
 10
48.293934
 20
48.606066
 30
0.0
  0
SEQEND
  5
389
  8
QUASAR
  0
POLYLINE
  5
C5
  8
QUASAR
 66
     1
 10
0.0
 20
0.0
 30
0.0
 40
0.3
 41
0.3
  0
VERTEX
  5
32A
  8
QUASAR
 10
48.55
 20
49.4
 30
0.0
  0
VERTEX
  5
32B
  8
QUASAR
 10
48.55
 20
48.8
 30
0.0
  0
SEQEND
  5
38A
  8
QUASAR
  0
POLYLINE
  5
C9
  8
QUASAR
 66
     1
 10
0.0
 20
0.0
 30
0.0
 40
0.3
 41
0.3
  0
VERTEX
  5
32C
  8
QUASAR
 10
48.593934
 20
49.293934
 30
0.0
  0
VERTEX
  5
32D
  8
QUASAR
 10
48.293934
 20
49.593934
 30
0.0
  0
SEQEND
  5
38B
  8
QUASAR
  0
POLYLINE
  5
CD
  8
QUASAR
 66
     1
 10
0.0
 20
0.0
 30
0.0
 40
0.3
 41
0.3
  0
VERTEX
  5
32E
  8
QUASAR
 10
47.8
 20
49.55
 30
0.0
  0
VERTEX
  5
32F
  8
QUASAR
 10
48.4
 20
49.55
 30
0.0
  0
SEQEND
  5
38C
  8
QUASAR
  0
POLYLINE
  5
D1
  8
QUASAR
 66
     1
 10
0.0
 20
0.0
 30
0.0
 40
0.3
 41
0.3
  0
VERTEX
  5
330
  8
QUASAR
 10
48.543934
 20
49.806066
 30
0.0
  0
VERTEX
  5
331
  8
QUASAR
 10
48.243934
 20
49.506066
 30
0.0
  0
SEQEND
  5
38D
  8
QUASAR
  0
POLYLINE
  5
D5
  8
QUASAR
 66
     1
 10
0.0
 20
0.0
 30
0.0
 40
0.3
 41
0.3
  0
VERTEX
  5
332
  8
QUASAR
 10
48.5
 20
50.2
 30
0.0
  0
VERTEX
  5
333
  8
QUASAR
 10
48.5
 20
49.7
 30
0.0
  0
SEQEND
  5
38E
  8
QUASAR
  0
POLYLINE
  5
D9
  8
QUASAR
 66
     1
 10
0.0
 20
0.0
 30
0.0
 40
0.3
 41
0.3
  0
VERTEX
  5
334
  8
QUASAR
 10
47.65
 20
48.5
 30
0.0
  0
VERTEX
  5
335
  8
QUASAR
 10
47.65
 20
50.5
 30
0.0
  0
SEQEND
  5
38F
  8
QUASAR
  0
POLYLINE
  5
DD
  8
QUASAR
 62
     1
 66
     1
 10
0.0
 20
0.0
 30
0.0
 40
0.3
 41
0.3
  0
VERTEX
  5
336
  8
QUASAR
 62
     1
 10
49.645544
 20
48.536288
 30
0.0
  0
VERTEX
  5
337
  8
QUASAR
 62
     1
 10
50.105196
 20
50.37985
 30
0.0
  0
SEQEND
  5
390
  8
QUASAR
 62
     1
  0
POLYLINE
  5
E1
  8
QUASAR
 62
     1
 66
     1
 10
0.0
 20
0.0
 30
0.0
 40
0.3
 41
0.3
  0
VERTEX
  5
338
  8
QUASAR
 62
     1
 10
50.554456
 20
48.536288
 30
0.0
  0
VERTEX
  5
339
  8
QUASAR
 62
     1
 10
50.073999
 20
50.463296
 30
0.0
  0
SEQEND
  5
391
  8
QUASAR
 62
     1
  0
POLYLINE
  5
E5
  8
QUASAR
 62
     1
 66
     1
 10
0.0
 20
0.0
 30
0.0
 40
0.3
 41
0.3
  0
VERTEX
  5
33A
  8
QUASAR
 62
     1
 10
49.8
 20
49.05
 30
0.0
  0
VERTEX
  5
33B
  8
QUASAR
 62
     1
 10
50.4
 20
49.05
 30
0.0
  0
SEQEND
  5
392
  8
QUASAR
 62
     1
  0
POLYLINE
  5
E9
  8
QUASAR
 66
     1
 10
0.0
 20
0.0
 30
0.0
 40
0.3
 41
0.3
  0
VERTEX
  5
33C
  8
QUASAR
 10
51.55
 20
50.35
 30
0.0
  0
VERTEX
  5
33D
  8
QUASAR
 10
52.35
 20
50.35
 30
0.0
  0
SEQEND
  5
393
  8
QUASAR
  0
POLYLINE
  5
ED
  8
QUASAR
 66
     1
 10
0.0
 20
0.0
 30
0.0
 40
0.3
 41
0.3
  0
VERTEX
  5
33E
  8
QUASAR
 10
51.55
 20
48.65
 30
0.0
  0
VERTEX
  5
33F
  8
QUASAR
 10
52.35
 20
48.65
 30
0.0
  0
SEQEND
  5
394
  8
QUASAR
  0
POLYLINE
  5
F1
  8
QUASAR
 66
     1
 10
0.0
 20
0.0
 30
0.0
 40
0.3
 41
0.3
  0
VERTEX
  5
340
  8
QUASAR
 10
52.543934
 20
50.093934
 30
0.0
  0
VERTEX
  5
341
  8
QUASAR
 10
52.243934
 20
50.393934
 30
0.0
  0
SEQEND
  5
395
  8
QUASAR
  0
POLYLINE
  5
F5
  8
QUASAR
 66
     1
 10
0.0
 20
0.0
 30
0.0
 40
0.3
 41
0.3
  0
VERTEX
  5
342
  8
QUASAR
 10
52.543934
 20
48.906066
 30
0.0
  0
VERTEX
  5
343
  8
QUASAR
 10
52.243934
 20
48.606066
 30
0.0
  0
SEQEND
  5
396
  8
QUASAR
  0
POLYLINE
  5
F9
  8
QUASAR
 66
     1
 10
0.0
 20
0.0
 30
0.0
 40
0.3
 41
0.3
  0
VERTEX
  5
344
  8
QUASAR
 10
52.5
 20
49.4
 30
0.0
  0
VERTEX
  5
345
  8
QUASAR
 10
52.5
 20
48.8
 30
0.0
  0
SEQEND
  5
397
  8
QUASAR
  0
POLYLINE
  5
FD
  8
QUASAR
 66
     1
 10
0.0
 20
0.0
 30
0.0
 40
0.3
 41
0.3
  0
VERTEX
  5
346
  8
QUASAR
 10
52.543934
 20
49.293934
 30
0.0
  0
VERTEX
  5
347
  8
QUASAR
 10
52.243934
 20
49.593934
 30
0.0
  0
SEQEND
  5
398
  8
QUASAR
  0
POLYLINE
  5
101
  8
QUASAR
 66
     1
 10
0.0
 20
0.0
 30
0.0
 40
0.3
 41
0.3
  0
VERTEX
  5
348
  8
QUASAR
 10
51.75
 20
49.55
 30
0.0
  0
VERTEX
  5
349
  8
QUASAR
 10
52.35
 20
49.55
 30
0.0
  0
SEQEND
  5
399
  8
QUASAR
  0
POLYLINE
  5
105
  8
QUASAR
 66
     1
 10
0.0
 20
0.0
 30
0.0
 40
0.3
 41
0.3
  0
VERTEX
  5
34A
  8
QUASAR
 10
52.543934
 20
49.806066
 30
0.0
  0
VERTEX
  5
34B
  8
QUASAR
 10
52.243934
 20
49.506066
 30
0.0
  0
SEQEND
  5
39A
  8
QUASAR
  0
POLYLINE
  5
109
  8
QUASAR
 66
     1
 10
0.0
 20
0.0
 30
0.0
 40
0.3
 41
0.3
  0
VERTEX
  5
34C
  8
QUASAR
 10
52.5
 20
50.2
 30
0.0
  0
VERTEX
  5
34D
  8
QUASAR
 10
52.5
 20
49.7
 30
0.0
  0
SEQEND
  5
39B
  8
QUASAR
  0
POLYLINE
  5
10D
  8
QUASAR
 62
    12
 66
     1
 10
0.0
 20
0.0
 30
0.0
 40
0.3
 41
0.3
  0
VERTEX
  5
34E
  8
QUASAR
 62
    12
 10
53.645544
 20
48.536288
 30
0.0
  0
VERTEX
  5
34F
  8
QUASAR
 62
    12
 10
54.105196
 20
50.37985
 30
0.0
  0
SEQEND
  5
39C
  8
QUASAR
 62
    12
  0
POLYLINE
  5
111
  8
QUASAR
 62
    12
 66
     1
 10
0.0
 20
0.0
 30
0.0
 40
0.3
 41
0.3
  0
VERTEX
  5
350
  8
QUASAR
 62
    12
 10
54.554456
 20
48.536288
 30
0.0
  0
VERTEX
  5
351
  8
QUASAR
 62
    12
 10
54.073999
 20
50.463296
 30
0.0
  0
SEQEND
  5
39D
  8
QUASAR
 62
    12
  0
POLYLINE
  5
115
  8
QUASAR
 62
    12
 66
     1
 10
0.0
 20
0.0
 30
0.0
 40
0.3
 41
0.3
  0
VERTEX
  5
352
  8
QUASAR
 62
    12
 10
53.8
 20
49.05
 30
0.0
  0
VERTEX
  5
353
  8
QUASAR
 62
    12
 10
54.4
 20
49.05
 30
0.0
  0
SEQEND
  5
39E
  8
QUASAR
 62
    12
  0
POLYLINE
  5
119
  8
RRR
 66
     1
 10
0.0
 20
0.0
 30
0.0
 40
0.3
 41
0.3
  0
VERTEX
  5
354
  8
RRR
 10
55.65
 20
48.5
 30
0.0
  0
VERTEX
  5
355
  8
RRR
 10
55.65
 20
50.5
 30
0.0
  0
SEQEND
  5
39F
  8
RRR
  0
POLYLINE
  5
11D
  8
RRR
 66
     1
 10
0.0
 20
0.0
 30
0.0
 40
0.3
 41
0.3
  0
VERTEX
  5
356
  8
RRR
 10
55.8
 20
50.35
 30
0.0
  0
VERTEX
  5
357
  8
RRR
 10
56.4
 20
50.35
 30
0.0
  0
SEQEND
  5
3A0
  8
RRR
  0
POLYLINE
  5
121
  8
RRR
 66
     1
 10
0.0
 20
0.0
 30
0.0
 40
0.3
 41
0.3
  0
VERTEX
  5
358
  8
RRR
 10
56.593934
 20
50.093934
 30
0.0
  0
VERTEX
  5
359
  8
RRR
 10
56.293934
 20
50.393934
 30
0.0
  0
SEQEND
  5
3A1
  8
RRR
  0
POLYLINE
  5
125
  8
RRR
 66
     1
 10
0.0
 20
0.0
 30
0.0
 40
0.3
 41
0.3
  0
VERTEX
  5
35A
  8
RRR
 10
56.55
 20
49.7
 30
0.0
  0
VERTEX
  5
35B
  8
RRR
 10
56.55
 20
50.2
 30
0.0
  0
SEQEND
  5
3A2
  8
RRR
  0
POLYLINE
  5
129
  8
RRR
 66
     1
 10
0.0
 20
0.0
 30
0.0
 40
0.3
 41
0.3
  0
VERTEX
  5
35C
  8
RRR
 10
56.593934
 20
49.806066
 30
0.0
  0
VERTEX
  5
35D
  8
RRR
 10
56.293934
 20
49.506066
 30
0.0
  0
SEQEND
  5
3A3
  8
RRR
  0
POLYLINE
  5
12D
  8
RRR
 66
     1
 10
0.0
 20
0.0
 30
0.0
 40
0.3
 41
0.3
  0
VERTEX
  5
35E
  8
RRR
 10
55.8
 20
49.55
 30
0.0
  0
VERTEX
  5
35F
  8
RRR
 10
56.4
 20
49.55
 30
0.0
  0
SEQEND
  5
3A4
  8
RRR
  0
ENDSEC
  0
EOF
